# Blender v2.79 (sub 0) OBJ File: ''
# www.blender.org
mtllib segment_4.mtl
o segment_4_Placeholder_Assembly_(1).001
v -25.000000 -179.206238 8.414799
v 25.000000 -179.039780 9.246525
v -25.000000 -179.998001 -0.424110
v 25.000000 -179.998001 0.424110
v 25.000000 -179.135330 8.779064
v -25.000000 -179.039780 -9.246525
v 25.000000 -179.135330 -8.779064
v -25.000000 -179.135330 -8.779064
v 25.000000 -179.206238 -8.414799
v 25.000000 -180.000000 0.000000
v -30.000000 -171.772278 -15.741631
v -30.000000 -174.146469 -8.219131
v -30.000000 -174.998230 -0.376984
v -30.000000 -174.294434 7.479824
v -30.000000 -172.062454 15.045734
v 30.000000 -171.772278 15.741634
v 30.000000 -174.146469 8.219131
v 30.000000 -174.998230 0.376984
v 30.000000 -174.294434 -7.479824
v 30.000000 -172.062454 -15.045738
v -45.000000 -115.000000 0.000000
v 45.000000 -115.000000 0.000000
v 25.000000 -185.000000 -50.000000
v 45.000000 -185.000000 -50.000000
v 25.000000 -185.000000 -20.000000
v 50.000000 -185.000000 -45.000000
v 45.000000 -185.000000 50.000000
v 25.000000 -185.000000 50.000000
v 50.000000 -185.000000 45.000000
v 25.000000 -185.000000 20.000000
v -25.000000 -185.000000 -20.000000
v -25.000000 -185.000000 20.000000
v -25.000000 -185.000000 50.000000
v -45.000000 -185.000000 50.000000
v -50.000000 -185.000000 45.000000
v -50.000000 -185.000000 -45.000000
v -25.000000 -185.000000 -50.000000
v -45.000000 -185.000000 -50.000000
v -25.000000 -180.000000 -20.000000
v -25.000000 -180.000000 -50.000000
v 45.000000 -180.000000 -50.000000
v 25.000000 -180.000000 -50.000000
v 50.000000 -180.000000 45.000000
v 50.000000 -180.000000 22.071068
v 50.000000 -175.000000 14.999996
v 50.000000 -180.000000 -45.000000
v 50.000000 -180.000000 -22.071068
v 50.000000 -131.881317 -14.672218
v 50.000000 -128.898956 -13.703182
v 50.000000 -135.000000 14.999996
v 50.000000 -175.000000 -15.000000
v 50.000000 -135.000000 -15.000000
v 50.000000 -126.183220 -12.135254
v 50.000000 -123.852829 -10.036961
v 50.000000 -122.009621 -7.500000
v 50.000000 -120.734154 -4.635254
v 50.000000 -120.082169 -1.567924
v 50.000000 -120.082169 1.567928
v 50.000000 -120.734154 4.635258
v 50.000000 -122.009621 7.500000
v 50.000000 -123.852829 10.036957
v 50.000000 -126.183220 12.135254
v 50.000000 -128.898956 13.703178
v 50.000000 -131.881317 14.672218
v -25.000000 -180.000000 50.000000
v -25.000000 -180.000000 20.000000
v 45.000000 -180.000000 50.000000
v 25.000000 -180.000000 50.000000
v 25.000000 -180.000000 20.000000
v -45.000000 -175.000000 -20.000000
v -47.071068 -180.000000 -25.000000
v -50.000000 -175.000000 -15.000000
v -50.000000 -180.000000 -22.071068
v -45.000000 -180.000000 50.000000
v -30.000000 -175.000000 20.000000
v -30.000000 -180.000000 25.000004
v -30.000000 -175.000000 -20.000000
v -30.000000 -180.000000 -25.000000
v -30.000000 -135.000000 20.000000
v -30.000000 -135.000000 -20.000000
v -30.000000 -130.841766 -19.562950
v -30.000000 -126.865265 -18.270912
v -30.000000 -123.244293 -16.180336
v -30.000000 -120.137100 -13.382614
v -30.000000 -115.109558 2.090569
v -30.000000 -115.978867 6.180340
v -30.000000 -117.679489 10.000000
v -30.000000 -120.137100 13.382610
v -30.000000 -123.244293 16.180340
v -30.000000 -126.865265 18.270906
v -30.000000 -130.841766 19.562950
v -30.000000 -117.679489 -10.000000
v -30.000000 -115.978867 -6.180340
v -30.000000 -115.109558 -2.090569
v 25.000000 -180.000000 -20.000000
v -47.071068 -180.000000 25.000004
v -50.000000 -180.000000 22.071068
v -50.000000 -180.000000 45.000000
v 47.071068 -180.000000 -25.000000
v 30.000000 -180.000000 -25.000000
v 30.000000 -180.000000 25.000004
v 47.071068 -180.000000 25.000004
v -45.000000 -180.000000 -50.000000
v -50.000000 -180.000000 -45.000000
v -45.000000 -135.000000 -20.000000
v -50.000000 -175.000000 14.999996
v -50.000000 -135.000000 -15.000000
v -50.000000 -135.000000 14.999996
v -50.000000 -131.881317 -14.672218
v -50.000000 -131.881317 14.672218
v -50.000000 -128.898956 13.703178
v -50.000000 -120.082169 -1.567924
v -50.000000 -122.009621 -7.500000
v -50.000000 -123.852829 -10.036961
v -50.000000 -122.009621 7.500000
v -50.000000 -120.082169 1.567928
v -50.000000 -120.734154 4.635258
v -50.000000 -126.183220 -12.135254
v -50.000000 -128.898956 -13.703182
v -50.000000 -126.183220 12.135254
v -50.000000 -123.852829 10.036957
v -50.000000 -120.734154 -4.635254
v -45.000000 -175.000000 20.000000
v -45.000000 -135.000000 20.000000
v 30.000000 -175.000000 -20.000000
v 30.000000 -175.000000 20.000000
v 30.000000 -135.000000 -20.000000
v 30.000000 -135.000000 20.000000
v 30.000000 -130.841766 19.562950
v 30.000000 -126.865265 18.270906
v 30.000000 -123.244293 16.180340
v 30.000000 -130.841766 -19.562950
v 30.000000 -115.978867 6.180340
v 30.000000 -115.109558 2.090569
v 30.000000 -117.679489 -10.000000
v 30.000000 -115.109558 -2.090569
v 30.000000 -115.978867 -6.180340
v 30.000000 -117.679489 10.000000
v 30.000000 -120.137100 -13.382614
v 30.000000 -123.244293 -16.180336
v 30.000000 -120.137100 13.382610
v 30.000000 -126.865265 -18.270912
v 45.000000 -175.000000 20.000000
v 45.000000 -135.000000 20.000000
v 45.000000 -135.000000 -20.000000
v 45.000000 -130.841766 -19.562950
v 45.000000 -126.865265 -18.270912
v 45.000000 -123.244293 -16.180336
v 45.000000 -120.137100 -13.382614
v 45.000000 -117.679489 -10.000000
v 45.000000 -115.978867 -6.180340
v 45.000000 -115.109558 -2.090569
v 45.000000 -115.109558 2.090569
v 45.000000 -115.978867 6.180340
v 45.000000 -117.679489 10.000000
v 45.000000 -120.137100 13.382610
v 45.000000 -123.244293 16.180340
v 45.000000 -126.865265 18.270906
v 45.000000 -130.841766 19.562950
v 45.000000 -175.000000 -20.000000
v -45.000000 -130.841766 19.562950
v -45.000000 -126.865265 18.270906
v -45.000000 -123.244293 16.180340
v -45.000000 -120.137100 13.382610
v -45.000000 -117.679489 10.000000
v -45.000000 -115.978867 6.180340
v -45.000000 -115.109558 2.090569
v -45.000000 -115.109558 -2.090569
v -45.000000 -115.978867 -6.180340
v -45.000000 -117.679489 -10.000000
v -45.000000 -120.137100 -13.382614
v -45.000000 -123.244293 -16.180336
v -45.000000 -126.865265 -18.270912
v -45.000000 -130.841766 -19.562950
vn -0.0015 -0.9960 0.0892
vn 0.0007 -0.9947 0.1027
vn -0.0001 -0.9797 0.2003
vn 0.0000 -0.9797 -0.2003
vn 0.0000 -0.9816 -0.1910
vn -0.0007 -0.9947 -0.1027
vn 0.0008 -0.9956 -0.0939
vn -0.0001 -1.0000 0.0046
vn 0.7071 -0.6928 0.1416
vn 0.7085 -0.7016 0.0762
vn 0.7056 -0.7049 0.0728
vn 0.7071 -0.7071 0.0034
vn 0.7082 -0.7032 -0.0630
vn 0.7055 -0.7055 -0.0666
vn 0.7071 -0.6941 -0.1352
vn 0.7079 -0.6775 -0.1999
vn -0.7071 -0.6928 -0.1416
vn -0.7085 -0.7016 -0.0762
vn -0.7056 -0.7049 -0.0728
vn -0.7054 -0.7060 0.0632
vn 0.0000 -1.0000 0.0000
vn 1.0000 0.0000 0.0000
vn 0.0000 0.0000 -1.0000
vn 0.0000 0.0000 1.0000
vn -1.0000 0.0000 0.0000
vn -0.5000 0.7071 -0.5000
vn 0.0000 1.0000 0.0000
vn 0.0000 0.1045 -0.9945
vn 0.0000 0.3090 -0.9511
vn 0.0000 0.5000 -0.8660
vn 0.0000 0.6691 -0.7431
vn 0.0000 0.8090 -0.5878
vn 0.0000 0.9135 -0.4067
vn 0.0000 0.9781 -0.2079
vn 0.0000 0.9781 0.2079
vn 0.0000 0.9135 0.4067
vn 0.0000 0.8090 0.5878
vn 0.0000 0.6691 0.7431
vn 0.0000 0.5000 0.8660
vn 0.0000 0.3090 0.9511
vn 0.0000 0.1045 0.9945
vn -0.7071 0.0000 0.7071
vn -0.7071 0.0000 -0.7071
vn 0.5000 0.7071 -0.5000
vn 0.7071 0.0000 0.7071
vn 0.7052 0.0741 -0.7052
vn 0.7052 0.2191 -0.6743
vn 0.7052 0.3545 -0.6140
vn 0.7052 0.3545 -0.6141
vn 0.7052 0.4744 -0.5269
vn 0.7052 0.5736 -0.4168
vn 0.7052 0.6477 -0.2884
vn 0.7052 0.6936 -0.1474
vn 0.7052 0.7090 0.0000
vn 0.7052 0.6936 0.1474
vn 0.7052 0.6477 0.2884
vn 0.7052 0.5736 0.4168
vn 0.7052 0.4744 0.5269
vn 0.7052 0.3545 0.6141
vn 0.7052 0.2191 0.6743
vn 0.7052 0.0741 0.7052
vn -0.7052 0.0741 0.7052
vn -0.7052 0.2191 0.6743
vn -0.7052 0.3545 0.6140
vn -0.7052 0.3545 0.6141
vn -0.7052 0.4744 0.5269
vn -0.7052 0.5736 0.4168
vn -0.7052 0.6477 0.2884
vn -0.7052 0.6936 0.1474
vn -0.7052 0.7090 0.0000
vn -0.7052 0.6936 -0.1474
vn -0.7052 0.6477 -0.2884
vn -0.7052 0.5736 -0.4168
vn -0.7052 0.4744 -0.5269
vn -0.7052 0.3545 -0.6141
vn -0.7052 0.3545 -0.6140
vn -0.7052 0.2191 -0.6743
vn -0.7052 0.0741 -0.7052
vn 0.0000 0.7071 0.7071
vn 0.7071 0.0000 -0.7071
vn 0.0000 0.7071 -0.7071
vn 0.5000 0.7071 0.5000
vn -0.5000 0.7071 0.5000
usemtl None
s off
f 3//1 4//1 1//1
f 4//2 5//2 1//2
f 1//3 5//3 2//3
f 6//4 7//4 8//4
f 7//5 9//5 8//5
f 8//6 9//6 3//6
f 9//7 10//7 3//7
f 3//8 10//8 4//8
f 2//9 5//9 17//9
f 17//10 5//10 18//10
f 5//11 4//11 18//11
f 4//12 10//12 18//12
f 18//13 10//13 19//13
f 10//14 9//14 19//14
f 9//15 7//15 19//15
f 19//16 7//16 20//16
f 6//17 8//17 12//17
f 12//18 8//18 13//18
f 8//19 3//19 13//19
f 3//20 1//20 13//20
f 13//20 1//20 14//20
f 23//21 24//21 25//21
f 24//21 26//21 25//21
f 27//21 28//21 29//21
f 28//21 30//21 29//21
f 26//21 29//21 25//21
f 29//21 30//21 25//21
f 25//21 30//21 31//21
f 30//21 32//21 31//21
f 33//21 34//21 32//21
f 34//21 35//21 32//21
f 32//21 35//21 31//21
f 35//21 36//21 31//21
f 31//21 36//21 37//21
f 36//21 38//21 37//21
f 31//22 37//22 39//22
f 37//22 40//22 39//22
f 24//23 23//23 41//23
f 23//23 42//23 41//23
f 43//22 29//22 44//22
f 29//22 26//22 44//22
f 44//22 26//22 45//22
f 26//22 46//22 47//22
f 48//22 49//22 50//22
f 26//22 47//22 45//22
f 47//22 51//22 45//22
f 45//22 51//22 50//22
f 51//22 52//22 50//22
f 50//22 52//22 48//22
f 49//22 53//22 50//22
f 53//22 54//22 50//22
f 50//22 54//22 55//22
f 55//22 56//22 50//22
f 56//22 57//22 50//22
f 50//22 57//22 58//22
f 58//22 59//22 50//22
f 59//22 60//22 50//22
f 50//22 60//22 61//22
f 61//22 62//22 50//22
f 62//22 63//22 50//22
f 50//22 63//22 64//22
f 33//22 32//22 65//22
f 32//22 66//22 65//22
f 67//24 68//24 27//24
f 68//24 28//24 27//24
f 30//25 28//25 69//25
f 28//25 68//25 69//25
f 70//26 71//26 72//26
f 71//26 73//26 72//26
f 34//24 33//24 74//24
f 33//24 65//24 74//24
f 75//22 76//22 77//22
f 76//22 78//22 77//22
f 75//22 77//22 79//22
f 77//22 80//22 79//22
f 79//22 80//22 81//22
f 81//22 82//22 79//22
f 82//22 83//22 79//22
f 79//22 83//22 84//22
f 84//22 85//22 86//22
f 86//22 87//22 84//22
f 87//22 88//22 84//22
f 84//22 88//22 89//22
f 89//22 90//22 84//22
f 90//22 91//22 84//22
f 84//22 91//22 79//22
f 92//22 93//22 84//22
f 93//22 94//22 84//22
f 84//22 94//22 85//22
f 23//25 25//25 42//25
f 25//25 95//25 42//25
f 32//24 30//24 66//24
f 30//24 69//24 66//24
f 96//27 97//27 98//27
f 78//27 76//27 66//27
f 76//27 65//27 66//27
f 99//27 47//27 46//27
f 96//27 98//27 76//27
f 98//27 74//27 76//27
f 76//27 74//27 65//27
f 100//27 42//27 95//27
f 101//27 100//27 69//27
f 100//27 95//27 69//27
f 69//27 95//27 66//27
f 95//27 39//27 66//27
f 66//27 39//27 78//27
f 69//27 68//27 101//27
f 68//27 67//27 101//27
f 101//27 67//27 102//27
f 67//27 43//27 102//27
f 102//27 43//27 44//27
f 99//27 46//27 100//27
f 46//27 41//27 100//27
f 100//27 41//27 42//27
f 39//27 40//27 78//27
f 40//27 103//27 78//27
f 78//27 103//27 71//27
f 103//27 104//27 71//27
f 71//27 104//27 73//27
f 25//23 31//23 95//23
f 31//23 39//23 95//23
f 70//23 105//23 77//23
f 105//23 80//23 77//23
f 103//23 40//23 38//23
f 40//23 37//23 38//23
f 73//25 104//25 36//25
f 72//25 106//25 107//25
f 106//25 108//25 107//25
f 107//25 108//25 109//25
f 72//25 73//25 106//25
f 73//25 36//25 106//25
f 106//25 36//25 97//25
f 36//25 35//25 97//25
f 97//25 35//25 98//25
f 110//25 111//25 112//25
f 113//25 114//25 108//25
f 112//25 115//25 116//25
f 115//25 117//25 116//25
f 114//25 118//25 108//25
f 118//25 119//25 108//25
f 108//25 119//25 109//25
f 111//25 120//25 112//25
f 120//25 121//25 112//25
f 112//25 121//25 115//25
f 110//25 112//25 108//25
f 112//25 122//25 108//25
f 108//25 122//25 113//25
f 75//24 79//24 123//24
f 79//24 124//24 123//24
f 100//25 101//25 125//25
f 101//25 126//25 125//25
f 125//25 126//25 127//25
f 126//25 128//25 127//25
f 127//25 128//25 129//25
f 129//25 130//25 127//25
f 130//25 131//25 127//25
f 127//25 131//25 132//25
f 133//25 134//25 135//25
f 134//25 136//25 135//25
f 135//25 136//25 137//25
f 133//25 135//25 138//25
f 135//25 139//25 138//25
f 138//25 139//25 140//25
f 131//25 141//25 132//25
f 141//25 138//25 132//25
f 132//25 138//25 142//25
f 138//25 140//25 142//25
f 143//24 144//24 126//24
f 144//24 128//24 126//24
f 145//28 127//28 132//28
f 145//28 132//28 146//28
f 132//29 142//29 146//29
f 146//29 142//29 147//29
f 142//30 140//30 147//30
f 147//30 140//30 148//30
f 140//31 139//31 148//31
f 148//31 139//31 149//31
f 139//32 135//32 149//32
f 149//32 135//32 150//32
f 135//33 137//33 150//33
f 150//33 137//33 151//33
f 137//34 136//34 151//34
f 151//34 136//34 152//34
f 136//27 134//27 152//27
f 152//27 134//27 153//27
f 134//35 133//35 153//35
f 153//35 133//35 154//35
f 133//36 138//36 154//36
f 154//36 138//36 155//36
f 138//37 141//37 155//37
f 155//37 141//37 156//37
f 141//38 131//38 156//38
f 156//38 131//38 157//38
f 131//39 130//39 157//39
f 157//39 130//39 158//39
f 130//40 129//40 158//40
f 158//40 129//40 159//40
f 129//41 128//41 159//41
f 159//41 128//41 144//41
f 125//23 127//23 160//23
f 127//23 145//23 160//23
f 123//42 124//42 106//42
f 124//42 108//42 106//42
f 104//43 103//43 36//43
f 103//43 38//43 36//43
f 99//44 160//44 47//44
f 160//44 51//44 47//44
f 124//41 79//41 91//41
f 124//41 91//41 161//41
f 91//40 90//40 161//40
f 161//40 90//40 162//40
f 90//39 89//39 162//39
f 162//39 89//39 163//39
f 89//38 88//38 163//38
f 163//38 88//38 164//38
f 88//37 87//37 164//37
f 164//37 87//37 165//37
f 87//36 86//36 165//36
f 165//36 86//36 166//36
f 86//35 85//35 166//35
f 166//35 85//35 167//35
f 85//27 94//27 167//27
f 167//27 94//27 168//27
f 94//34 93//34 168//34
f 168//34 93//34 169//34
f 93//33 92//33 169//33
f 169//33 92//33 170//33
f 92//32 84//32 170//32
f 170//32 84//32 171//32
f 84//31 83//31 171//31
f 171//31 83//31 172//31
f 83//30 82//30 172//30
f 172//30 82//30 173//30
f 82//29 81//29 173//29
f 173//29 81//29 174//29
f 81//28 80//28 174//28
f 174//28 80//28 105//28
f 45//45 50//45 143//45
f 50//45 144//45 143//45
f 72//43 107//43 70//43
f 107//43 105//43 70//43
f 52//46 145//46 146//46
f 52//46 146//46 48//46
f 146//47 147//47 48//47
f 48//47 147//47 49//47
f 147//48 148//48 49//48
f 49//49 148//49 53//49
f 148//50 149//50 53//50
f 53//50 149//50 54//50
f 149//51 150//51 54//51
f 54//51 150//51 55//51
f 150//52 151//52 55//52
f 55//52 151//52 56//52
f 151//53 152//53 56//53
f 56//53 152//53 57//53
f 152//54 153//54 57//54
f 57//54 153//54 58//54
f 153//55 154//55 58//55
f 58//55 154//55 59//55
f 154//56 155//56 59//56
f 59//56 155//56 60//56
f 155//57 156//57 60//57
f 60//57 156//57 61//57
f 156//58 157//58 61//58
f 61//58 157//58 62//58
f 157//59 158//59 62//59
f 62//59 158//59 63//59
f 158//60 159//60 63//60
f 63//60 159//60 64//60
f 159//61 144//61 64//61
f 64//61 144//61 50//61
f 43//45 67//45 29//45
f 67//45 27//45 29//45
f 108//62 124//62 161//62
f 108//62 161//62 110//62
f 161//63 162//63 110//63
f 110//63 162//63 111//63
f 162//64 163//64 111//64
f 111//65 163//65 120//65
f 163//66 164//66 120//66
f 120//66 164//66 121//66
f 164//67 165//67 121//67
f 121//67 165//67 115//67
f 165//68 166//68 115//68
f 115//68 166//68 117//68
f 166//69 167//69 117//69
f 117//69 167//69 116//69
f 167//70 168//70 116//70
f 116//70 168//70 112//70
f 168//71 169//71 112//71
f 112//71 169//71 122//71
f 169//72 170//72 122//72
f 122//72 170//72 113//72
f 170//73 171//73 113//73
f 113//73 171//73 114//73
f 171//74 172//74 114//74
f 114//74 172//74 118//74
f 172//75 173//75 118//75
f 118//76 173//76 119//76
f 173//77 174//77 119//77
f 119//77 174//77 109//77
f 174//78 105//78 109//78
f 109//78 105//78 107//78
f 102//79 143//79 101//79
f 143//79 126//79 101//79
f 160//80 145//80 51//80
f 145//80 52//80 51//80
f 74//42 98//42 34//42
f 98//42 35//42 34//42
f 100//81 125//81 99//81
f 125//81 160//81 99//81
f 41//80 46//80 24//80
f 46//80 26//80 24//80
f 143//82 102//82 45//82
f 102//82 44//82 45//82
f 71//81 70//81 78//81
f 70//81 77//81 78//81
f 123//79 96//79 75//79
f 96//79 76//79 75//79
f 106//83 97//83 123//83
f 97//83 96//83 123//83
l 16 17
l 11 12
l 14 15
